<svg width="1800" height="500" viewBox="0 0 1800 500" fill="none" xmlns="http://www.w3.org/2000/svg">
<rect width="1800" height="500" fill="#F0F0F0"/>
<path d="M507.432 354V163.28H542.248V323.28H623.912V354H507.432ZM714.272 357.072C700.619 357.072 688.16 353.915 676.896 347.6C665.803 341.285 656.928 332.667 650.272 321.744C643.787 310.821 640.544 298.363 640.544 284.368C640.544 270.373 643.787 257.915 650.272 246.992C656.928 236.069 665.803 227.451 676.896 221.136C687.989 214.821 700.448 211.664 714.272 211.664C727.925 211.664 740.299 214.821 751.392 221.136C762.485 227.451 771.275 236.069 777.76 246.992C784.416 257.744 787.744 270.203 787.744 284.368C787.744 298.363 784.416 310.821 777.76 321.744C771.104 332.667 762.229 341.285 751.136 347.6C740.043 353.915 727.755 357.072 714.272 357.072ZM714.272 326.352C721.781 326.352 728.352 324.56 733.984 320.976C739.787 317.392 744.309 312.443 747.552 306.128C750.965 299.643 752.672 292.389 752.672 284.368C752.672 276.176 750.965 269.008 747.552 262.864C744.309 256.549 739.787 251.6 733.984 248.016C728.352 244.261 721.781 242.384 714.272 242.384C706.592 242.384 699.851 244.261 694.048 248.016C688.245 251.6 683.637 256.549 680.224 262.864C676.981 269.008 675.36 276.176 675.36 284.368C675.36 292.389 676.981 299.643 680.224 306.128C683.637 312.443 688.245 317.392 694.048 320.976C699.851 324.56 706.592 326.352 714.272 326.352ZM857.976 357.072C848.248 357.072 839.8 355.451 832.632 352.208C825.464 348.965 819.917 344.357 815.992 338.384C812.067 332.24 810.104 325.157 810.104 317.136C810.104 309.456 811.811 302.629 815.224 296.656C818.637 290.512 823.928 285.392 831.096 281.296C838.264 277.2 847.309 274.299 858.232 272.592L903.8 265.168V290.768L864.632 297.424C857.976 298.619 853.027 300.752 849.784 303.824C846.541 306.896 844.92 310.907 844.92 315.856C844.92 320.635 846.712 324.475 850.296 327.376C854.051 330.107 858.659 331.472 864.12 331.472C871.117 331.472 877.261 330.021 882.552 327.12C888.013 324.048 892.195 319.867 895.096 314.576C898.168 309.285 899.704 303.483 899.704 297.168V261.328C899.704 255.355 897.315 250.405 892.536 246.48C887.928 242.384 881.784 240.336 874.104 240.336C866.936 240.336 860.536 242.299 854.904 246.224C849.443 249.979 845.432 255.013 842.872 261.328L815.48 248.016C818.211 240.677 822.477 234.363 828.28 229.072C834.253 223.611 841.251 219.344 849.272 216.272C857.293 213.2 865.997 211.664 875.384 211.664C886.819 211.664 896.888 213.797 905.592 218.064C914.296 222.16 921.037 227.963 925.816 235.472C930.765 242.811 933.24 251.429 933.24 261.328V354H901.496V330.192L908.664 329.68C905.08 335.653 900.813 340.688 895.864 344.784C890.915 348.709 885.283 351.781 878.968 354C872.653 356.048 865.656 357.072 857.976 357.072ZM1031.56 357.072C1018.08 357.072 1006.05 353.915 995.468 347.6C984.887 341.115 976.524 332.325 970.38 321.232C964.236 310.139 961.164 297.851 961.164 284.368C961.164 270.715 964.236 258.427 970.38 247.504C976.524 236.581 984.887 227.877 995.468 221.392C1006.22 214.907 1018.17 211.664 1031.31 211.664C1041.89 211.664 1051.28 213.797 1059.47 218.064C1067.83 222.16 1074.4 227.963 1079.18 235.472L1074.06 242.384V160.208H1107.6V354H1075.85V327.12L1079.44 333.776C1074.66 341.285 1068 347.088 1059.47 351.184C1050.93 355.109 1041.63 357.072 1031.56 357.072ZM1035.15 326.352C1042.83 326.352 1049.57 324.56 1055.37 320.976C1061.17 317.392 1065.7 312.443 1068.94 306.128C1072.35 299.813 1074.06 292.56 1074.06 284.368C1074.06 276.347 1072.35 269.179 1068.94 262.864C1065.7 256.379 1061.17 251.344 1055.37 247.76C1049.57 244.176 1042.83 242.384 1035.15 242.384C1027.64 242.384 1020.9 244.261 1014.92 248.016C1008.95 251.6 1004.26 256.549 1000.84 262.864C997.601 269.008 995.98 276.176 995.98 284.368C995.98 292.56 997.601 299.813 1000.84 306.128C1004.26 312.443 1008.95 317.392 1014.92 320.976C1020.9 324.56 1027.64 326.352 1035.15 326.352ZM1141.36 354V214.736H1172.84V245.712L1170.28 241.104C1173.53 230.693 1178.56 223.44 1185.39 219.344C1192.39 215.248 1200.75 213.2 1210.48 213.2H1218.67V242.896H1206.64C1197.08 242.896 1189.4 245.883 1183.6 251.856C1177.79 257.659 1174.89 265.851 1174.89 276.432V354H1141.36ZM1245.29 354V318.16H1279.08V354H1245.29Z" fill="black"/>
</svg>
