<svg width="1800" height="500" viewBox="0 0 1800 500" fill="none" xmlns="http://www.w3.org/2000/svg">
<rect width="1800" height="500" fill="#F0F0F0"/>
<path d="M396.432 354V163.28H523.152V194H431.248V242.896H518.032V273.616H431.248V323.28H523.152V354H396.432ZM548.426 354V214.736H579.914V246.992L576.33 241.616C578.89 231.547 584.01 224.037 591.69 219.088C599.37 214.139 608.415 211.664 618.826 211.664C630.261 211.664 640.33 214.651 649.034 220.624C657.738 226.597 663.37 234.448 665.93 244.176L656.458 244.944C660.725 233.851 667.125 225.573 675.658 220.112C684.191 214.48 694.005 211.664 705.098 211.664C714.997 211.664 723.786 213.883 731.466 218.32C739.317 222.757 745.461 228.987 749.898 237.008C754.335 244.859 756.554 253.989 756.554 264.4V354H723.018V272.336C723.018 266.192 721.909 260.901 719.69 256.464C717.471 252.027 714.399 248.613 710.474 246.224C706.549 243.664 701.77 242.384 696.138 242.384C690.847 242.384 686.154 243.664 682.058 246.224C677.962 248.613 674.805 252.027 672.586 256.464C670.367 260.901 669.258 266.192 669.258 272.336V354H635.722V272.336C635.722 266.192 634.613 260.901 632.394 256.464C630.175 252.027 627.018 248.613 622.922 246.224C618.997 243.664 614.303 242.384 608.842 242.384C603.551 242.384 598.858 243.664 594.762 246.224C590.666 248.613 587.509 252.027 585.29 256.464C583.071 260.901 581.962 266.192 581.962 272.336V354H548.426ZM855.582 357.072C841.929 357.072 829.47 353.915 818.206 347.6C807.113 341.285 798.238 332.667 791.582 321.744C785.097 310.821 781.854 298.363 781.854 284.368C781.854 270.373 785.097 257.915 791.582 246.992C798.238 236.069 807.113 227.451 818.206 221.136C829.299 214.821 841.758 211.664 855.582 211.664C869.235 211.664 881.609 214.821 892.702 221.136C903.795 227.451 912.585 236.069 919.07 246.992C925.726 257.744 929.054 270.203 929.054 284.368C929.054 298.363 925.726 310.821 919.07 321.744C912.414 332.667 903.539 341.285 892.446 347.6C881.353 353.915 869.065 357.072 855.582 357.072ZM855.582 326.352C863.091 326.352 869.662 324.56 875.294 320.976C881.097 317.392 885.619 312.443 888.862 306.128C892.275 299.643 893.982 292.389 893.982 284.368C893.982 276.176 892.275 269.008 888.862 262.864C885.619 256.549 881.097 251.6 875.294 248.016C869.662 244.261 863.091 242.384 855.582 242.384C847.902 242.384 841.161 244.261 835.358 248.016C829.555 251.6 824.947 256.549 821.534 262.864C818.291 269.008 816.67 276.176 816.67 284.368C816.67 292.389 818.291 299.643 821.534 306.128C824.947 312.443 829.555 317.392 835.358 320.976C841.161 324.56 847.902 326.352 855.582 326.352ZM937.846 410.576C935.627 410.576 933.323 410.491 930.934 410.32C928.545 410.149 926.582 409.893 925.046 409.552V380.368C928.118 380.88 931.19 381.136 934.262 381.136C941.43 381.136 946.977 379.429 950.902 376.016C954.998 372.773 957.046 367.739 957.046 360.912V214.736H990.582V360.912C990.582 371.493 988.449 380.453 984.182 387.792C979.915 395.301 973.771 400.933 965.75 404.688C957.899 408.613 948.598 410.576 937.846 410.576ZM957.046 199.12V163.28H990.582V199.12H957.046ZM1024.11 354V214.736H1057.64V354H1024.11ZM1024.11 199.12V163.28H1057.64V199.12H1024.11ZM1107.29 354V244.688H1082.72V214.736H1107.29V210.128C1107.29 199.547 1109.43 190.587 1113.69 183.248C1118.13 175.739 1124.28 170.021 1132.13 166.096C1139.98 162.171 1149.28 160.208 1160.03 160.208C1162.08 160.208 1164.3 160.379 1166.69 160.72C1169.25 160.891 1171.38 161.147 1173.09 161.488V190.416C1171.38 190.075 1169.76 189.904 1168.22 189.904C1166.86 189.733 1165.58 189.648 1164.38 189.648C1156.87 189.648 1151.07 191.355 1146.97 194.768C1142.88 198.011 1140.83 203.131 1140.83 210.128V214.736H1171.81V244.688H1140.83V354H1107.29ZM1214.62 410.576C1210.87 410.576 1207.2 410.235 1203.61 409.552C1200.03 409.04 1196.79 408.101 1193.89 406.736V378.576C1196.1 379.088 1198.75 379.6 1201.82 380.112C1205.06 380.624 1208.05 380.88 1210.78 380.88C1218.46 380.88 1224.01 379.088 1227.42 375.504C1231.01 371.92 1234.16 367.227 1236.89 361.424L1246.11 339.92L1245.6 368.08L1184.93 214.736H1221.02L1263.52 327.888H1250.72L1292.96 214.736H1329.31L1268.64 368.08C1265.05 377.125 1260.7 384.805 1255.58 391.12C1250.46 397.435 1244.49 402.213 1237.66 405.456C1231.01 408.869 1223.33 410.576 1214.62 410.576ZM1355.91 354V318.16H1389.7V354H1355.91Z" fill="black"/>
</svg>
