<svg width="1800" height="500" viewBox="0 0 1800 500" fill="none" xmlns="http://www.w3.org/2000/svg">
<rect width="1800" height="500" fill="#F0F0F0"/>
<path d="M451.592 350.672L334.088 300.752V267.984L451.592 217.808V252.112L361.48 290.256V278.48L451.592 316.624V350.672ZM496.176 354V160.208H529.712V354H496.176ZM631.332 357.072C617.679 357.072 605.22 353.915 593.956 347.6C582.863 341.285 573.988 332.667 567.332 321.744C560.847 310.821 557.604 298.363 557.604 284.368C557.604 270.373 560.847 257.915 567.332 246.992C573.988 236.069 582.863 227.451 593.956 221.136C605.049 214.821 617.508 211.664 631.332 211.664C644.985 211.664 657.359 214.821 668.452 221.136C679.545 227.451 688.335 236.069 694.82 246.992C701.476 257.744 704.804 270.203 704.804 284.368C704.804 298.363 701.476 310.821 694.82 321.744C688.164 332.667 679.289 341.285 668.196 347.6C657.103 353.915 644.815 357.072 631.332 357.072ZM631.332 326.352C638.841 326.352 645.412 324.56 651.044 320.976C656.847 317.392 661.369 312.443 664.612 306.128C668.025 299.643 669.732 292.389 669.732 284.368C669.732 276.176 668.025 269.008 664.612 262.864C661.369 256.549 656.847 251.6 651.044 248.016C645.412 244.261 638.841 242.384 631.332 242.384C623.652 242.384 616.911 244.261 611.108 248.016C605.305 251.6 600.697 256.549 597.284 262.864C594.041 269.008 592.42 276.176 592.42 284.368C592.42 292.389 594.041 299.643 597.284 306.128C600.697 312.443 605.305 317.392 611.108 320.976C616.911 324.56 623.652 326.352 631.332 326.352ZM775.036 357.072C765.308 357.072 756.86 355.451 749.692 352.208C742.524 348.965 736.977 344.357 733.052 338.384C729.127 332.24 727.164 325.157 727.164 317.136C727.164 309.456 728.871 302.629 732.284 296.656C735.697 290.512 740.988 285.392 748.156 281.296C755.324 277.2 764.369 274.299 775.292 272.592L820.86 265.168V290.768L781.692 297.424C775.036 298.619 770.087 300.752 766.844 303.824C763.601 306.896 761.98 310.907 761.98 315.856C761.98 320.635 763.772 324.475 767.356 327.376C771.111 330.107 775.719 331.472 781.18 331.472C788.177 331.472 794.321 330.021 799.612 327.12C805.073 324.048 809.255 319.867 812.156 314.576C815.228 309.285 816.764 303.483 816.764 297.168V261.328C816.764 255.355 814.375 250.405 809.596 246.48C804.988 242.384 798.844 240.336 791.164 240.336C783.996 240.336 777.596 242.299 771.964 246.224C766.503 249.979 762.492 255.013 759.932 261.328L732.54 248.016C735.271 240.677 739.537 234.363 745.34 229.072C751.313 223.611 758.311 219.344 766.332 216.272C774.353 213.2 783.057 211.664 792.444 211.664C803.879 211.664 813.948 213.797 822.652 218.064C831.356 222.16 838.097 227.963 842.876 235.472C847.825 242.811 850.3 251.429 850.3 261.328V354H818.556V330.192L825.724 329.68C822.14 335.653 817.873 340.688 812.924 344.784C807.975 348.709 802.343 351.781 796.028 354C789.713 356.048 782.716 357.072 775.036 357.072ZM948.624 357.072C935.141 357.072 923.109 353.915 912.528 347.6C901.947 341.115 893.584 332.325 887.44 321.232C881.296 310.139 878.224 297.851 878.224 284.368C878.224 270.715 881.296 258.427 887.44 247.504C893.584 236.581 901.947 227.877 912.528 221.392C923.28 214.907 935.227 211.664 948.368 211.664C958.949 211.664 968.336 213.797 976.528 218.064C984.891 222.16 991.461 227.963 996.24 235.472L991.12 242.384V160.208H1024.66V354H992.912V327.12L996.496 333.776C991.717 341.285 985.061 347.088 976.528 351.184C967.995 355.109 958.693 357.072 948.624 357.072ZM952.208 326.352C959.888 326.352 966.629 324.56 972.432 320.976C978.235 317.392 982.757 312.443 986 306.128C989.413 299.813 991.12 292.56 991.12 284.368C991.12 276.347 989.413 269.179 986 262.864C982.757 256.379 978.235 251.344 972.432 247.76C966.629 244.176 959.888 242.384 952.208 242.384C944.699 242.384 937.957 244.261 931.984 248.016C926.011 251.6 921.317 256.549 917.904 262.864C914.661 269.008 913.04 276.176 913.04 284.368C913.04 292.56 914.661 299.813 917.904 306.128C921.317 312.443 926.011 317.392 931.984 320.976C937.957 324.56 944.699 326.352 952.208 326.352ZM1058.42 354V214.736H1089.9V245.712L1087.34 241.104C1090.59 230.693 1095.62 223.44 1102.45 219.344C1109.45 215.248 1117.81 213.2 1127.54 213.2H1135.73V242.896H1123.7C1114.14 242.896 1106.46 245.883 1100.66 251.856C1094.85 257.659 1091.95 265.851 1091.95 276.432V354H1058.42ZM1193.27 384.72L1278.26 173.52H1314.87L1229.87 384.72H1193.27ZM1347.85 350.672V316.624L1437.71 278.48V290.256L1347.85 252.112V217.808L1465.1 267.984V300.752L1347.85 350.672Z" fill="black"/>
</svg>
